<svg xmlns="http://www.w3.org/2000/svg" width="500" height="500" viewBox="0 0 500 500" preserveAspectRatio="true">

	<path fill="#FFFFFF" d="M342.57,255.65l57.6-44.16c3.86,1.93,8.16,2.96,12.53,2.96c6.19,0,12.06-1.99,16.98-5.76
		c7.39-5.67,11.46-14.61,10.88-23.93l-0.23-3.58l-4.72-6.76l-6.63,5.08l-12.28,9.42l-7.54-3.09l-1.15-7.79l12.56-9.63l7.06-5.41
		l-3.66-5.24l-5.45-1.87c-2.94-1.01-6.01-1.52-9.12-1.52c-6.19,0-12.07,1.99-16.98,5.76c-8.61,6.6-12.48,17.38-10.4,27.65
		l-47.42,36.36l-1.09,1.98c0,0,20.16,13.02,0.37,34.13c-2.09,2.23-4.01,4.13-5.81,5.77c3.33-0.24,6.47-1.43,9.15-3.49
		C339.58,260.73,341.42,258.35,342.57,255.65z"/>
	<path fill="currentColor" d="M425.29,202.97c5.68-4.36,8.49-11.11,8.08-17.76l-15.56,11.94l-15.16-6.22
		l-2.37-16.03l15.92-12.21c-6.35-2.18-13.66-1.25-19.38,3.14c-7.67,5.88-10.1,16.12-6.43,24.61l-52.2,40.03
		c2.9,3.57,5.72,9.24,3.73,16.6l57.84-44.35C407.02,208.54,417.59,208.88,425.29,202.97z"/>
</svg>
